<svg xmlns="http://www.w3.org/2000/svg" viewBox="0 0 8192 8192">
  <g>
    <polygon points="3086.7,3072.3 3090.4,3099.9 3095.2,3123.9 3109.0,3149.7 3121.4,3169.1 3140.4,3197.3 3156.1,3215.7 3172.5,3231.7 3197.6,3248.5 3223.1,3260.1 3265.3,3267.0 3286.5,3268.4 3309.4,3267.6 3327.6,3266.5 3346.8,3262.9 3367.0,3258.9 3388.0,3252.2 3410.2,3240.7 3419.2,3234.0 3429.0,3225.2 3450.8,3201.6 3463.0,3186.6 3484.0,3159.3 3488.8,3151.1 3496.2,3132.1 3500.2,3118.8 3503.3,3106.0 3506.0,3091.5 3508.2,3077.7 3509.4,3068.4 3510.1,3056.5 3509.9,3042.2 3538.3,3008.1 3590.0,2968.3 3523.9,2921.2 3484.9,2879.3 3604.2,2694.3 3538.3,2656.8 3488.0,2451.3 3106.6,2468.2 2962.1,2466.5 2876.3,2463.4 2815.7,2463.2 2574.4,2609.3 2415.7,2458.3 2227.8,2655.2 2403.9,2822.9 2400.8,3055.6 2682.0,3062.4 3025.0,3070.8" fill="none" stroke="#ffb300" stroke-width="3" stroke-opacity="0.7" id="city_center"/>
    <polygon points="3355.7,3981.9 3559.2,3697.0 3624.2,3600.5 3991.4,3091.6 3743.3,2933.4 3710.7,2756.9 3604.2,2694.3 3484.9,2879.3 3523.9,2921.2 3590.0,2968.3 3538.3,3008.1 3514.1,3032.7 3508.2,3077.7 3496.2,3132.1 3463.0,3186.6 3419.2,3234.0 3388.0,3252.2 3327.6,3266.5 3265.3,3267.0 3197.6,3248.5 3156.1,3215.7 3121.4,3169.1 3095.2,3123.9 3086.7,3072.3 2915.3,3068.1 2400.8,3055.6 2454.9,3533.6 2541.1,3705.6 2695.3,3793.7 2752.0,3942.6 2902.4,3943.4" fill="none" stroke="#ff4081" stroke-width="3" stroke-opacity="0.7" id="heywood"/>
    <polygon points="3075.7,4447.6 3095.7,4427.2 3105.1,4437.3 3188.8,4353.6 3213.4,4309.6 3218.0,4311.3 3226.5,4292.2 3236.2,4296.8 3255.9,4254.9 3253.4,4246.4 3273.4,4195.6 3285.6,4220.3 3344.5,4196.3 3391.3,4194.9 3409.9,4181.1 3417.8,4178.7 3442.7,4182.0 3463.4,4193.7 3472.4,4207.7 3519.7,4242.9 3534.2,4230.6 3478.1,4137.1 3435.3,4085.6 3405.8,4060.2 3368.1,4047.1 3355.5,3981.1 2909.8,3959.3 2631.3,4000.0 2390.7,3824.8 2147.2,4127.6 1844.2,4440.7 2108.2,4832.4 2155.0,4787.8 2158.3,4774.1 2254.6,4864.2 2531.8,4812.9 2635.1,4764.2 2622.4,4741.3 2735.1,4665.4 2731.8,4662.6 2737.0,4657.7 2740.7,4652.7 2756.1,4637.3 2761.4,4630.5 2800.6,4590.0 2820.1,4570.6 2816.1,4566.4 2827.4,4554.5 2826.5,4553.6 2841.0,4539.1 2852.2,4550.4 2852.4,4550.5 2869.7,4568.4 2872.9,4565.0 2860.6,4552.5 2870.8,4542.4 2873.9,4545.0 2872.5,4546.4 2877.4,4551.0 2881.7,4547.0 2874.0,4539.3 2854.9,4521.7 2863.1,4512.6 2860.6,4509.9 2861.0,4506.7 2864.1,4503.8 2878.7,4489.8 2902.2,4514.9 2903.8,4501.6 2915.6,4489.8 2928.4,4489.2 2942.6,4502.9 2949.3,4495.3 2952.9,4498.3 2955.9,4498.0 3004.9,4449.8 2999.5,4445.5 3016.0,4428.1 3037.0,4406.1" fill="none" stroke="#69ff47" stroke-width="3" stroke-opacity="0.7" id="pacifica"/>
    <polygon points="4490.4,3408.5 4442.7,3388.5 4154.6,3187.5 4141.5,3206.0 3991.4,3091.6 3355.7,3981.9 3368.3,4046.7 3408.4,4060.5 3454.4,4102.8 3480.2,4139.7 3538.6,4236.2 3574.6,4264.0 3714.3,4407.2 3890.1,4530.9 4007.0,4598.7 4213.2,4589.9 4286.1,4583.2 4339.6,4703.1 4373.5,4749.8 4543.4,4800.4 4595.7,4754.1 4654.8,4623.0 4720.6,4567.0 4760.9,4521.1 4780.5,4462.4 4811.4,4453.1 4864.5,4383.4 4885.0,4332.7 4894.9,4240.9 4907.6,4013.4 5035.8,3537.1 5006.6,3453.9 4901.0,3332.4 4805.6,3363.6 4541.7,3409.8" fill="none" stroke="#ff9800" stroke-width="3" stroke-opacity="0.7" id="santo_domingo"/>
    <polygon points="2062.1,1808.7 2176.9,1147.1 2603.6,858.1 2850.6,844.7 2978.1,767.8 3154.9,637.6 3238.5,584.0 3518.1,473.2 3692.3,498.9 3832.0,544.9 3980.7,645.0 4006.5,836.5 4239.6,1377.9 4080.5,1541.0 4086.5,1596.6 4080.7,1645.5 4058.4,1703.7 3945.2,1805.4 3748.7,1893.9 3680.1,1945.0 3615.9,2041.5 3609.6,2178.8 3547.8,2368.1 3488.0,2451.3 3106.6,2468.2 2815.7,2463.2 2639.3,1988.2" fill="none" stroke="#b47aff" stroke-width="3" stroke-opacity="0.7" id="watson"/>
    <polygon points="4620.2,2823.4 4870.1,3129.9 4901.0,3332.4 4805.6,3363.6 4541.7,3409.8 4490.4,3408.5 4442.7,3388.5 4154.6,3187.5 4141.5,3206.0 3964.9,3076.0 3743.3,2933.4 3710.7,2756.9 3538.3,2656.8 3488.0,2451.3 3547.8,2368.1 3609.6,2178.8 3615.9,2041.5 3680.1,1945.0 3748.7,1893.9 3945.2,1805.4 4058.4,1703.7 4080.7,1645.5 4086.5,1596.6 4080.5,1541.0 4239.6,1377.9 4291.3,1508.3 4399.3,1655.9 4515.3,1786.6 4518.5,1829.5 4526.6,1862.7 4554.7,1887.2 4596.9,1890.7 4615.3,1899.2 4633.7,1926.1 4643.0,1952.8 4652.5,1987.0 4677.1,2011.1 4701.4,2018.9 4721.4,2038.7 4748.8,2083.3 4810.0,2143.5 4891.0,2162.8 4996.1,2182.5 4972.7,2621.8" fill="none" stroke="#00f0ff" stroke-width="3" stroke-opacity="0.7" id="westbrook"/>
    <polygon points="2055.6,2153.2 2289.3,2287.7 2289.3,2556.6 2089.0,2960.1 1588.2,3430.8 820.4,3430.8 653.5,3296.3 653.5,2287.7 820.4,2153.2" fill="none" stroke="#40c4ff" stroke-width="3" stroke-opacity="0.7" id="ep1_spaceport"/>
    <polygon points="2531.1,4813.8 2432.7,4913.8 2465.1,4944.5 2481.4,4960.1 2502.5,4975.9 2542.5,5004.2 2602.4,5072.8 2724.5,5220.9 2940.2,5094.8 3153.8,4990.6 3230.5,4945.7 3368.4,4858.0 3455.5,4743.1 3702.3,4415.7 3578.6,4272.5 3531.4,4229.6 3473.1,4209.4 3461.7,4194.7 3444.8,4181.6 3416.1,4179.7 3389.3,4197.0 3350.6,4195.3 3288.2,4223.9 3275.0,4197.5 3252.6,4245.1 3254.5,4253.6 3236.9,4296.9 3226.3,4292.6 3222.9,4300.8 3218.5,4311.3 3212.1,4308.9 3206.1,4323.4 3202.5,4331.8 3191.9,4355.3 3126.3,4416.4 3091.1,4433.8 3082.1,4442.2 3076.2,4437.4 3069.8,4444.0 3035.0,4409.9 3000.1,4444.9 3005.6,4451.2 2955.0,4498.4 2949.5,4498.2 2943.8,4504.6 2928.3,4489.4 2916.8,4488.9 2902.3,4503.0 2902.4,4514.9 2878.7,4490.4 2861.4,4506.5 2861.1,4510.6 2863.4,4512.6 2854.9,4521.1 2881.2,4546.7 2876.8,4551.4 2869.2,4543.7 2860.6,4552.4 2872.9,4565.1 2869.5,4568.5 2840.9,4539.2 2826.6,4553.6 2827.5,4554.5 2815.9,4566.5 2821.5,4572.0 2790.0,4602.5 2771.3,4621.9 2733.3,4662.1 2738.2,4667.7 2694.9,4710.8 2679.7,4723.8 2641.7,4728.8 2622.8,4742.5 2636.1,4764.9" fill="none" stroke="#ff5252" stroke-width="3" stroke-opacity="0.7" id="ep1_dogtown"/>
  </g>
</svg>
