<svg xmlns="http://www.w3.org/2000/svg" viewBox="0 0 8192 8192">
  <g id="city_center">
    <polygon points="3080.5,3069.2 3084.2,3096.9 3089.0,3121.1 3103.0,3147.1 3115.6,3166.6 3134.8,3194.9 3150.7,3213.5 3167.3,3229.6 3192.7,3246.4 3218.6,3258.1 3261.4,3265.1 3282.8,3266.5 3306.0,3265.7 3324.5,3264.5 3343.9,3260.9 3364.3,3256.9 3385.6,3250.2 3408.1,3238.6 3417.2,3231.9 3427.2,3223.0 3449.2,3199.3 3461.6,3184.2 3482.8,3156.8 3487.7,3148.5 3495.2,3129.4 3499.3,3115.9 3502.4,3103.1 3505.2,3088.5 3507.4,3074.6 3508.6,3065.3 3509.3,3053.3 3509.1,3038.9 3537.9,3004.6 3590.2,2964.6 3523.3,2917.2 3483.7,2875.0 3604.6,2689.0 3537.9,2651.3 3487.0,2444.5 3100.6,2461.5 2954.2,2459.8 2867.3,2456.7 2805.9,2456.5 2561.5,2603.4 2400.8,2451.5 2210.4,2649.6 2388.9,2818.3 2385.7,3052.4 2670.6,3059.3 3018.0,3067.6" fill="none" stroke="#ffb300" stroke-width="3" stroke-opacity="0.7"/>
    <polygon points="3080.5,3069.1 3018.0,3067.6 3017.7,3046.8 3023.9,2903.2 3026.0,2876.1 3029.1,2776.9 3071.6,2779.0 3077.6,2756.0 3078.9,2751.9 3081.6,2713.0 3091.1,2610.7 3096.4,2547.8 3095.8,2531.0 3096.6,2509.6 3099.3,2495.8 3100.6,2461.6 3487.0,2444.5 3537.9,2651.3 3604.6,2689.0 3483.7,2875.0 3523.3,2917.2 3590.2,2964.6 3537.9,3004.6 3509.1,3038.9 3509.3,3053.3 3508.6,3065.3 3507.4,3074.6 3505.2,3088.5 3502.4,3103.1 3499.3,3115.9 3495.2,3129.4 3487.7,3148.5 3482.8,3156.8 3461.6,3184.2 3449.2,3199.3 3427.2,3223.0 3417.2,3231.9 3408.1,3238.6 3385.6,3250.2 3364.3,3256.9 3343.9,3260.9 3324.5,3264.5 3306.0,3265.7 3282.8,3266.5 3261.4,3265.1 3218.6,3258.1 3192.7,3246.4 3167.3,3229.6 3150.7,3213.4 3134.8,3194.9 3115.6,3166.6 3103.0,3147.1 3089.0,3121.1 3084.2,3096.9" fill="none" stroke="#ffb300" stroke-width="1.5" stroke-dasharray="18,10" stroke-opacity="0.45" id="corpo_plaza"/>
    <polygon points="3100.6,2461.6 3098.7,2496.9 3095.4,2514.2 3094.4,2579.8 3092.4,2599.1 3089.7,2632.3 3081.5,2713.1 3077.1,2755.6 3073.3,2780.1 3029.2,2776.8 3023.2,2940.7 3018.4,3046.5 3018.0,3067.6 2670.6,3059.3 2385.7,3052.4 2388.9,2818.3 2210.4,2649.6 2400.8,2451.5 2561.5,2603.4 2805.9,2456.5 2867.3,2456.7 2954.2,2459.8" fill="none" stroke="#ffb300" stroke-width="1.5" stroke-dasharray="18,10" stroke-opacity="0.45" id="downtown"/>
  </g>
  <g id="heywood">
    <polygon points="3352.9,3984.2 3559.0,3697.6 3624.9,3600.6 3996.8,3088.6 3745.5,2929.5 3712.5,2751.9 3604.6,2689.0 3483.7,2875.0 3523.3,2917.2 3590.2,2964.6 3537.9,3004.6 3513.3,3029.4 3507.4,3074.6 3495.2,3129.4 3461.6,3184.2 3417.2,3231.9 3385.6,3250.2 3324.5,3264.5 3261.4,3265.1 3192.7,3246.4 3150.7,3213.5 3115.6,3166.6 3089.0,3121.1 3080.5,3069.2 2906.8,3065.0 2385.7,3052.4 2440.5,3533.2 2527.9,3706.2 2684.0,3794.9 2741.4,3944.6 2893.8,3945.5" fill="none" stroke="#ff4081" stroke-width="3" stroke-opacity="0.7"/>
    <polygon points="2906.8,3065.0 2903.7,3467.9 2893.8,3945.5 2741.4,3944.6 2684.0,3794.9 2527.9,3706.3 2440.5,3533.2 2385.7,3052.4" fill="none" stroke="#ff4081" stroke-width="1.5" stroke-dasharray="18,10" stroke-opacity="0.45" id="wellspring"/>
    <polygon points="3353.0,3984.2 2893.8,3945.5 2903.7,3467.9 2906.8,3065.0 3080.5,3069.1 3089.0,3121.1 3115.6,3166.6 3150.7,3213.4 3192.7,3246.4 3261.4,3265.1 3324.5,3264.5 3385.6,3250.2 3417.2,3231.9 3461.6,3184.2 3503.6,3507.6 3559.0,3697.6" fill="none" stroke="#ff4081" stroke-width="1.5" stroke-dasharray="18,10" stroke-opacity="0.45" id="glen"/>
    <polygon points="3559.0,3697.6 3503.6,3507.6 3461.6,3184.2 3495.2,3129.4 3507.4,3074.6 3513.3,3029.4 3537.9,3004.6 3590.2,2964.6 3523.3,2917.2 3483.7,2875.0 3604.6,2689.0 3712.5,2751.9 3745.5,2929.5 3996.8,3088.6 3624.9,3600.6" fill="none" stroke="#ff4081" stroke-width="1.5" stroke-dasharray="18,10" stroke-opacity="0.45" id="vista_del_rey"/>
  </g>
  <g id="pacifica">
    <polygon points="3069.3,4452.6 3089.5,4432.1 3099.1,4442.2 3183.8,4358.1 3208.8,4313.8 3213.4,4315.6 3222.1,4296.3 3231.9,4300.9 3251.9,4258.8 3249.3,4250.2 3269.5,4199.2 3281.9,4224.0 3341.5,4199.9 3389.0,4198.4 3407.8,4184.6 3415.8,4182.2 3441.0,4185.5 3462.0,4197.2 3471.1,4211.3 3519.0,4246.8 3533.7,4234.4 3476.8,4140.3 3433.5,4088.5 3403.6,4063.0 3365.5,4049.8 3352.7,3983.4 2901.2,3961.5 2619.2,4002.4 2375.4,3826.1 2128.8,4130.7 1822.0,4445.7 2089.4,4839.7 2136.7,4794.9 2140.1,4781.1 2237.6,4871.7 2518.4,4820.1 2623.1,4771.1 2610.2,4748.1 2724.3,4671.7 2721.0,4668.9 2726.2,4663.9 2730.0,4659.0 2745.6,4643.5 2750.9,4636.6 2790.6,4595.9 2810.4,4576.4 2806.3,4572.2 2817.8,4560.2 2816.9,4559.2 2831.6,4544.7 2842.9,4556.0 2843.1,4556.2 2860.6,4574.1 2863.9,4570.8 2851.4,4558.1 2861.8,4548.0 2864.9,4550.7 2863.5,4552.0 2868.4,4556.7 2872.8,4552.6 2865.0,4544.9 2845.6,4527.2 2854.0,4518.1 2851.4,4515.3 2851.9,4512.1 2855.0,4509.1 2869.7,4495.1 2893.6,4520.3 2895.2,4507.0 2907.2,4495.1 2920.1,4494.5 2934.5,4508.2 2941.2,4500.6 2944.9,4503.6 2948.0,4503.3 2997.6,4454.8 2992.1,4450.6 3008.9,4433.0 3030.1,4410.9" fill="none" stroke="#69ff47" stroke-width="3" stroke-opacity="0.7"/>
    <polygon points="3069.3,4452.6 3030.1,4410.9 3008.9,4433.0 2992.1,4450.6 2997.6,4454.8 2948.0,4503.3 2944.9,4503.6 2941.2,4500.6 2934.5,4508.2 2920.1,4494.5 2907.2,4495.1 2895.2,4507.0 2893.6,4520.3 2869.7,4495.1 2855.0,4509.1 2851.9,4512.1 2851.4,4515.3 2854.0,4518.1 2845.6,4527.2 2865.0,4544.9 2872.8,4552.6 2868.4,4556.7 2863.5,4552.0 2864.9,4550.7 2861.8,4548.0 2851.4,4558.1 2863.9,4570.8 2860.6,4574.1 2843.1,4556.2 2842.9,4556.0 2831.6,4544.7 2816.9,4559.2 2817.8,4560.2 2806.3,4572.2 2810.4,4576.4 2790.6,4595.9 2750.9,4636.6 2745.6,4643.5 2730.0,4659.0 2726.2,4663.9 2721.0,4668.9 2656.4,4582.3 2439.5,4289.7 2619.2,4002.4 2901.2,3961.5 3352.7,3983.4 3365.4,4049.8 3403.6,4063.0 3433.5,4088.5 3476.8,4140.3 3533.7,4234.4 3519.0,4246.8 3471.1,4211.3 3462.0,4197.2 3441.0,4185.5 3415.8,4182.2 3407.8,4184.6 3389.0,4198.4 3341.5,4199.9 3281.9,4224.0 3269.5,4199.2 3249.3,4250.2 3251.9,4258.8 3231.9,4300.9 3222.1,4296.3 3213.4,4315.6 3208.8,4313.8 3183.8,4358.1 3099.1,4442.2 3089.5,4432.1" fill="none" stroke="#69ff47" stroke-width="1.5" stroke-dasharray="18,10" stroke-opacity="0.45" id="coastview"/>
    <polygon points="2619.2,4002.4 2624.4,4001.7 2445.6,4293.1 2539.8,4433.7 2594.4,4501.0 2721.4,4668.5 2721.0,4668.9 2722.9,4670.6 2723.7,4671.6 2684.6,4698.3 2610.2,4748.1 2610.5,4748.8 2609.9,4749.3 2622.6,4771.4 2518.4,4820.1 2293.8,4861.3 2237.5,4871.5 2142.4,4783.2 2140.7,4781.6 2140.7,4781.6 2140.1,4781.1 2136.8,4794.4 2136.7,4794.9 2089.7,4839.4 1823.3,4446.6 1909.0,4356.4 2128.8,4130.7 2359.6,3845.7 2375.0,3827.0 2403.9,3846.7" fill="none" stroke="#69ff47" stroke-width="1.5" stroke-dasharray="18,10" stroke-opacity="0.45" id="west_wind_estate"/>
  </g>
  <g id="santo_domingo">
    <polygon points="4502.2,3407.4 4453.9,3387.3 4162.1,3185.1 4148.8,3203.7 3996.8,3088.6 3352.9,3984.2 3365.7,4049.3 3406.2,4063.3 3452.8,4105.8 3479.0,4142.9 3538.2,4240.0 3574.6,4267.9 3716.1,4412.0 3894.1,4536.5 4012.5,4604.7 4221.5,4595.8 4295.3,4589.0 4349.5,4709.6 4383.8,4756.6 4555.9,4807.5 4608.8,4761.0 4668.8,4629.1 4735.4,4572.7 4776.2,4526.6 4796.1,4467.6 4827.4,4458.2 4881.1,4388.1 4901.9,4337.0 4911.9,4244.7 4924.8,4015.9 5054.6,3536.8 5025.0,3453.1 4918.1,3330.8 4821.5,3362.2 4554.2,3408.7" fill="none" stroke="#ff9800" stroke-width="3" stroke-opacity="0.7"/>
    <polygon points="4502.2,3407.4 4554.2,3408.7 4556.7,3408.2 4086.9,4090.8 4063.3,4073.6 3998.4,4165.7 3957.3,4215.2 3846.6,4280.1 4029.6,4409.3 3916.6,4542.6 3716.1,4412.0 3574.6,4267.9 3538.2,4240.0 3479.0,4142.9 3452.8,4105.8 3406.3,4063.3 3365.7,4049.3 3353.0,3984.2 3944.6,3162.2 3996.8,3088.6 4148.8,3203.7 4162.1,3185.1 4453.9,3387.3" fill="none" stroke="#ff9800" stroke-width="1.5" stroke-dasharray="18,10" stroke-opacity="0.45" id="arroyo"/>
    <polygon points="4012.5,4604.7 3916.6,4542.6 4029.6,4409.3 3846.6,4280.1 3957.3,4215.2 3998.4,4165.7 4063.3,4073.6 4086.9,4090.8 4556.7,3408.2 4821.5,3362.2 4918.1,3330.8 5025.0,3453.1 5054.6,3536.8 4924.8,4015.9 4911.9,4244.7 4901.9,4337.0 4881.1,4388.1 4827.4,4458.2 4796.1,4467.6 4776.2,4526.6 4735.4,4572.7 4668.8,4629.1 4608.8,4761.0 4555.9,4807.5 4383.8,4756.6 4349.5,4709.6 4295.3,4589.0 4221.5,4595.8" fill="none" stroke="#ff9800" stroke-width="1.5" stroke-dasharray="18,10" stroke-opacity="0.45" id="rancho_coronado"/>
  </g>
  <g id="watson">
    <polygon points="2042.6,1798.1 2158.9,1132.6 2591.1,841.9 2841.3,828.4 2970.4,751.0 3149.5,620.0 3234.2,566.2 3517.4,454.7 3693.9,480.6 3835.3,526.9 3986.0,627.5 4012.1,820.2 4248.2,1364.7 4087.0,1528.8 4093.1,1584.7 4087.2,1633.9 4064.7,1692.5 3950.0,1794.8 3751.0,1883.8 3681.5,1935.2 3616.5,2032.3 3610.0,2170.4 3547.5,2360.8 3487.0,2444.5 3100.6,2461.5 2805.9,2456.5 2627.3,1978.7" fill="none" stroke="#b47aff" stroke-width="3" stroke-opacity="0.7"/>
    <polygon points="2158.9,1132.6 2591.1,841.9 2737.2,1071.1 2700.4,1094.4 2775.1,1210.0 2786.6,1227.5 2805.0,1216.5 2829.0,1219.2 2843.7,1221.3 2851.9,1226.6 3103.0,1700.3 2628.7,1982.6 2627.3,1978.7 2042.6,1798.1" fill="none" stroke="#b47aff" stroke-width="1.5" stroke-dasharray="18,10" stroke-opacity="0.45" id="arasaka_waterfront"/>
    <polygon points="2841.3,828.4 2970.4,751.0 3149.5,620.0 3234.2,566.2 3517.4,454.7 3693.9,480.6 3835.3,526.9 3986.0,627.5 4012.1,820.2 4248.2,1364.7 4087.0,1528.8 4093.1,1584.7 4087.2,1633.9 4064.7,1692.5 3950.0,1794.8 3751.0,1883.8 3721.9,1678.9 3704.4,1636.5 3709.2,1599.2 3728.4,1570.9 3628.5,1468.2 3587.3,1501.0 3536.4,1516.5 3455.8,1527.9 3346.9,1595.1 3360.6,1622.4 3364.3,1645.0 3377.6,1680.9 3180.6,1718.5 3115.5,1711.9 3103.0,1700.3 2851.9,1226.6 2843.7,1221.3 2805.0,1216.5 2786.1,1227.7 2700.4,1094.4 2737.2,1071.1 2591.1,841.9" fill="none" stroke="#b47aff" stroke-width="1.5" stroke-dasharray="18,10" stroke-opacity="0.45" id="northside"/>
    <polygon points="3681.5,1935.2 3616.5,2032.3 3610.0,2170.4 3547.5,2360.8 3394.3,2328.2 3427.8,1749.0 3377.6,1680.9 3364.3,1645.0 3360.6,1622.4 3346.9,1595.1 3455.8,1527.9 3536.4,1516.5 3587.3,1501.0 3628.5,1468.2 3728.4,1570.9 3707.8,1604.9 3704.4,1636.5 3721.9,1678.9 3751.0,1883.8" fill="none" stroke="#b47aff" stroke-width="1.5" stroke-dasharray="18,10" stroke-opacity="0.45" id="kabuki"/>
    <polygon points="3487.0,2444.5 3100.6,2461.6 2805.9,2456.5 2627.3,1978.7 2840.0,1853.7 3103.0,1700.3 3115.5,1711.9 3180.6,1718.5 3377.6,1680.9 3427.8,1749.0 3394.3,2328.2 3547.5,2360.8" fill="none" stroke="#b47aff" stroke-width="1.5" stroke-dasharray="18,10" stroke-opacity="0.45" id="little_china"/>
  </g>
  <g id="westbrook">
    <polygon points="4633.7,2818.8 4886.9,3127.2 4918.1,3330.8 4821.5,3362.2 4554.2,3408.7 4502.2,3407.4 4453.9,3387.3 4162.1,3185.1 4148.8,3203.7 3970.0,3072.9 3745.5,2929.5 3712.5,2751.9 3537.9,2651.3 3487.0,2444.5 3547.5,2360.8 3610.0,2170.4 3616.5,2032.3 3681.5,1935.2 3751.0,1883.8 3950.0,1794.8 4064.7,1692.5 4087.2,1633.9 4093.1,1584.7 4087.0,1528.8 4248.2,1364.7 4300.6,1495.9 4409.9,1644.4 4527.4,1775.9 4530.6,1819.1 4538.8,1852.4 4567.4,1877.1 4610.1,1880.6 4628.7,1889.2 4647.3,1916.2 4656.8,1943.1 4666.5,1977.5 4691.3,2001.8 4715.9,2009.6 4736.2,2029.4 4763.9,2074.3 4825.9,2134.9 4908.0,2154.4 5014.5,2174.1 4990.7,2616.0" fill="none" stroke="#00f0ff" stroke-width="3" stroke-opacity="0.7"/>
    <polygon points="3745.5,2929.5 3712.5,2751.9 3537.9,2651.3 3487.0,2444.5 3547.5,2360.8 3610.0,2170.4 3616.5,2032.3 3681.5,1935.2 3751.0,1883.8 3950.0,1794.8 4064.7,1692.5 4087.2,1633.9 4093.1,1584.7 4133.5,1618.1 4187.1,1831.4 4196.9,1952.3 4156.0,2006.2 4138.7,2037.4 4122.4,2099.0 4121.0,2149.2 4191.7,2138.8 4208.5,2269.2 4245.8,2386.4 4222.4,2392.0 4231.8,2436.0 4187.7,2449.9 4223.5,2535.7 4211.1,2595.7 4121.4,2661.6 4111.8,2702.0 4094.7,2795.5 4062.9,2895.3 4030.9,2966.3 3970.0,3072.9" fill="none" stroke="#00f0ff" stroke-width="1.5" stroke-dasharray="18,10" stroke-opacity="0.45" id="japan_town"/>
    <polygon points="4635.9,2821.4 4635.4,2821.7 4437.3,2813.1 4332.4,2747.5 4242.0,2682.3 4209.1,2593.6 4223.5,2535.7 4187.7,2449.9 4231.8,2436.0 4222.4,2392.0 4245.8,2386.4 4208.5,2269.2 4191.7,2138.8 4121.0,2149.2 4122.4,2099.0 4138.7,2037.4 4156.0,2006.2 4196.9,1952.3 4187.1,1831.4 4133.5,1618.1 4093.1,1584.7 4087.0,1528.8 4248.2,1364.7 4300.6,1495.9 4409.9,1644.4 4527.4,1775.9 4530.6,1819.1 4538.8,1852.4 4567.4,1877.1 4610.1,1880.6 4628.7,1889.2 4647.3,1916.2 4656.8,1943.1 4666.5,1977.5 4691.3,2001.8 4715.9,2009.6 4736.2,2029.4 4763.9,2074.3 4825.9,2134.9 4908.0,2154.4 5014.5,2174.1 4990.7,2616.0 4633.7,2818.8" fill="none" stroke="#00f0ff" stroke-width="1.5" stroke-dasharray="18,10" stroke-opacity="0.45" id="north_oak"/>
    <polygon points="4918.1,3330.8 4821.5,3362.2 4554.2,3408.7 4502.2,3407.4 4453.9,3387.3 4162.1,3185.1 4148.8,3203.7 3970.0,3072.9 4030.9,2966.3 4062.9,2895.3 4094.7,2795.5 4111.8,2702.0 4121.4,2661.6 4209.1,2593.6 4242.0,2682.3 4332.4,2747.5 4437.3,2813.1 4635.4,2821.7 4886.9,3127.2" fill="none" stroke="#00f0ff" stroke-width="1.5" stroke-dasharray="18,10" stroke-opacity="0.45" id="charter_hill"/>
    <polygon points="4908.0,2154.4 4825.9,2134.9 4763.9,2074.3 4736.2,2029.4 4715.9,2009.6 4691.3,2001.8 4666.5,1977.5 4656.8,1943.1 4647.3,1916.2 4628.7,1889.2 4610.1,1880.6 4567.4,1877.1 4538.8,1852.4 4530.6,1819.1 4527.6,1777.6 4552.3,1754.1 4563.7,1738.7 4578.7,1731.9 4629.6,1719.9 4641.9,1713.7 4645.5,1697.1 4633.4,1652.4 4631.6,1619.9 4642.3,1604.9 4655.2,1596.8 4704.2,1594.7 4791.7,1596.3 4833.9,1595.3 4857.4,1609.8 4980.7,1614.6 4994.1,1618.5 5003.3,1628.4 5004.6,1661.6 5008.9,1674.9 5030.6,1696.3 5052.6,1712.9 5091.2,1726.6 5127.5,1739.6 5181.6,1784.4 5189.1,1790.8 5195.3,1806.8 5126.5,1909.2 5317.5,2111.3 5126.3,1908.9 5100.9,1969.9 5076.1,2013.9 5076.8,2082.6 5075.2,2100.8 5052.7,2149.7 4993.5,2170.2" fill="none" stroke="#00f0ff" stroke-width="1.5" stroke-dasharray="18,10" stroke-opacity="0.45" id="north_oaks_casino"/>
  </g>
  <g id="ep1_spaceport">
    <polygon points="2036.1,2144.6 2272.8,2279.9 2272.8,2550.5 2069.9,2956.3 1562.7,3429.8 784.9,3429.8 615.9,3294.5 615.9,2279.9 784.9,2144.6" fill="none" stroke="#40c4ff" stroke-width="3" stroke-opacity="0.7"/>
  </g>
  <g id="ep1_dogtown">
    <polygon points="2517.6,4821.0 2418.0,4921.6 2450.8,4952.5 2467.3,4968.2 2488.7,4984.1 2529.2,5012.5 2589.9,5081.6 2713.6,5230.5 2932.0,5103.7 3148.4,4998.9 3226.1,4953.7 3365.7,4865.5 3454.0,4749.9 3703.9,4420.6 3578.7,4276.5 3530.8,4233.3 3471.9,4213.1 3460.2,4198.2 3443.1,4185.0 3414.1,4183.1 3386.9,4200.6 3347.7,4198.9 3284.6,4227.6 3271.1,4201.1 3248.4,4249.0 3250.4,4257.5 3232.6,4301.0 3221.8,4296.7 3218.4,4304.9 3213.9,4315.6 3207.4,4313.1 3201.4,4327.7 3197.8,4336.2 3187.0,4359.8 3120.5,4421.2 3084.9,4438.7 3075.8,4447.2 3069.8,4442.4 3063.3,4449.0 3028.1,4414.7 2992.8,4449.9 2998.3,4456.3 2947.0,4503.8 2941.5,4503.6 2935.7,4510.0 2920.0,4494.7 2908.3,4494.2 2893.7,4508.4 2893.7,4520.4 2869.8,4495.7 2852.2,4511.9 2852.0,4516.0 2854.2,4518.0 2845.7,4526.6 2872.3,4552.3 2867.8,4557.1 2860.2,4549.3 2851.4,4558.1 2863.9,4570.8 2860.5,4574.3 2831.4,4544.8 2817.0,4559.2 2817.9,4560.2 2806.2,4572.3 2811.8,4577.8 2779.9,4608.5 2760.9,4628.0 2722.4,4668.4 2727.5,4674.1 2683.6,4717.4 2668.2,4730.5 2629.7,4735.6 2610.6,4749.3 2624.0,4771.9" fill="none" stroke="#ff5252" stroke-width="3" stroke-opacity="0.7"/>
  </g>
</svg>
