<svg xmlns="http://www.w3.org/2000/svg" viewBox="0 0 8192 8192" style="background:#0a192f">
  <g id="city_center" data-name="City Center">
    <polygon points="2664.7,3403.6 2599.1,3402.1 2598.8,3381.6 2605.3,3240.2 2607.5,3213.5 2610.7,3115.8 2655.3,3117.9 2661.6,3095.3 2663.0,3091.3 2665.8,3052.9 2675.8,2952.2 2681.3,2890.2 2680.7,2873.7 2681.5,2852.7 2684.4,2839.1 2685.7,2805.4 3090.9,2788.6 3144.3,2992.2 3214.3,3029.3 3087.5,3212.5 3129.0,3254.0 3199.2,3300.7 3144.4,3340.0 3114.1,3373.9 3114.3,3388.0 3113.6,3399.8 3112.4,3409.0 3110.0,3422.6 3107.1,3437.0 3103.9,3449.7 3099.6,3462.9 3091.7,3481.7 3086.6,3489.9 3064.4,3516.9 3051.4,3531.8 3028.3,3555.1 3017.8,3563.9 3008.3,3570.4 2984.7,3581.9 2962.3,3588.5 2940.9,3592.4 2920.5,3596.0 2901.2,3597.1 2876.9,3597.9 2854.4,3596.5 2809.5,3589.7 2782.4,3578.1 2755.7,3561.6 2738.3,3545.7 2721.6,3527.4 2701.4,3499.6 2688.3,3480.3 2673.6,3454.8 2668.5,3431.0" fill="#ffd741" fill-opacity="0.15" stroke="#ffd741" stroke-width="3" stroke-dasharray="8,12" stroke-opacity="0.5" id="corpo_plaza" data-name="Corporate Plaza"/>
    <polygon points="2685.7,2805.4 2683.7,2840.2 2680.3,2857.2 2679.3,2921.8 2677.1,2940.8 2674.3,2973.5 2665.7,3053.0 2661.1,3094.9 2657.1,3119.0 2610.9,3115.7 2604.6,3277.1 2599.6,3381.4 2599.1,3402.1 2234.7,3393.9 1936.0,3387.1 1939.3,3156.7 1752.2,2990.5 1951.9,2795.5 2120.4,2945.0 2376.7,2800.4 2441.1,2800.5 2532.2,2803.6" fill="#ffd741" fill-opacity="0.15" stroke="#ffd741" stroke-width="3" stroke-dasharray="8,12" stroke-opacity="0.5" id="downtown" data-name="Downtown"/>
    <polygon points="2664.7,3403.6 2668.5,3431.0 2673.6,3454.8 2688.3,3480.3 2701.4,3499.6 2721.6,3527.4 2738.3,3545.7 2755.7,3561.6 2782.4,3578.1 2809.5,3589.7 2854.4,3596.5 2876.9,3597.9 2901.2,3597.1 2920.5,3596.0 2940.9,3592.4 2962.3,3588.5 2984.7,3581.9 3008.3,3570.4 3017.8,3563.9 3028.3,3555.1 3051.4,3531.8 3064.4,3516.9 3086.6,3489.9 3091.7,3481.7 3099.6,3462.9 3103.9,3449.7 3107.1,3437.0 3110.0,3422.6 3112.4,3409.0 3113.6,3399.8 3114.3,3388.0 3114.1,3373.9 3144.4,3340.0 3199.2,3300.7 3129.0,3254.0 3087.5,3212.5 3214.3,3029.3 3144.3,2992.2 3090.9,2788.6 2685.7,2805.4 2532.2,2803.6 2441.1,2800.5 2376.7,2800.4 2120.4,2945.0 1951.9,2795.5 1752.2,2990.5 1939.3,3156.7 1936.0,3387.1 2234.7,3393.9 2599.1,3402.1" fill="none" stroke="#ffd741" stroke-width="3" stroke-opacity="0.8"/>
  </g>
  <g id="watson" data-name="Watson">
    <polygon points="1698.1,1496.8 2151.4,1210.6 2304.6,1436.3 2266.1,1459.2 2344.4,1573.1 2356.4,1590.3 2375.7,1579.4 2400.9,1582.1 2416.3,1584.2 2425.0,1589.4 2688.2,2055.8 2190.9,2333.7 2189.3,2329.9 1576.2,2152.1" fill="#ff3e34" fill-opacity="0.15" stroke="#ff3e34" stroke-width="3" stroke-dasharray="8,12" stroke-opacity="0.5" id="arasaka_waterfront" data-name="Arasaka Waterfront"/>
    <polygon points="2413.8,1197.3 2549.2,1121.1 2737.0,992.1 2825.9,939.1 3122.9,829.3 3307.9,854.8 3456.3,900.4 3614.3,999.5 3641.7,1189.2 3889.3,1725.4 3720.2,1886.9 3726.6,1942.0 3720.5,1990.4 3696.8,2048.1 3576.6,2148.8 3367.8,2236.5 3337.3,2034.8 3319.0,1993.0 3324.1,1956.3 3344.1,1928.4 3239.4,1827.2 3196.2,1859.6 3142.8,1874.8 3058.3,1886.0 2944.0,1952.2 2958.5,1979.1 2962.3,2001.4 2976.3,2036.7 2769.7,2073.7 2701.3,2067.2 2688.2,2055.8 2425.0,1589.4 2416.3,1584.2 2375.7,1579.4 2355.9,1590.5 2266.1,1459.2 2304.6,1436.3 2151.4,1210.6" fill="#ff3e34" fill-opacity="0.15" stroke="#ff3e34" stroke-width="3" stroke-dasharray="8,12" stroke-opacity="0.5" id="northside" data-name="Northside Industrial District"/>
    <polygon points="3295.0,2287.1 3226.8,2382.7 3220.0,2518.6 3154.4,2706.2 2993.8,2674.1 3028.9,2103.8 2976.3,2036.7 2962.3,2001.4 2958.5,1979.1 2944.0,1952.2 3058.3,1886.0 3142.8,1874.8 3196.2,1859.6 3239.4,1827.2 3344.1,1928.4 3322.6,1961.9 3319.0,1993.0 3337.3,2034.8 3367.8,2236.5" fill="#ff3e34" fill-opacity="0.15" stroke="#ff3e34" stroke-width="3" stroke-dasharray="8,12" stroke-opacity="0.5" id="kabuki" data-name="Kabuki"/>
    <polygon points="3090.9,2788.6 2685.7,2805.4 2376.7,2800.4 2189.3,2329.9 2412.4,2206.9 2688.2,2055.8 2701.3,2067.2 2769.7,2073.7 2976.3,2036.7 3028.9,2103.8 2993.8,2674.1 3154.4,2706.2" fill="#ff3e34" fill-opacity="0.15" stroke="#ff3e34" stroke-width="3" stroke-dasharray="8,12" stroke-opacity="0.5" id="little_china" data-name="Little China"/>
    <polygon points="1576.2,2152.1 1698.1,1496.8 2151.4,1210.6 2413.8,1197.3 2549.2,1121.1 2737.0,992.1 2825.9,939.1 3122.9,829.3 3307.9,854.8 3456.3,900.4 3614.3,999.5 3641.7,1189.2 3889.3,1725.4 3720.2,1886.9 3726.6,1942.0 3720.5,1990.4 3696.8,2048.1 3576.6,2148.8 3367.8,2236.5 3295.0,2287.1 3226.8,2382.7 3220.0,2518.6 3154.4,2706.2 3090.9,2788.6 2685.7,2805.4 2376.7,2800.4 2189.3,2329.9" fill="none" stroke="#ff3e34" stroke-width="3" stroke-opacity="0.8"/>
  </g>
  <g id="westbrook" data-name="Westbrook">
    <polygon points="3362.1,3266.1 3327.4,3091.2 3144.3,2992.2 3090.9,2788.6 3154.4,2706.2 3220.0,2518.6 3226.8,2382.7 3295.0,2287.1 3367.8,2236.5 3576.6,2148.8 3696.8,2048.1 3720.5,1990.4 3726.6,1942.0 3769.0,1974.9 3825.2,2184.8 3835.4,2303.9 3792.6,2357.0 3774.5,2387.8 3757.3,2448.4 3755.9,2497.8 3830.1,2487.5 3847.6,2616.0 3886.8,2731.3 3862.2,2736.9 3872.1,2780.2 3825.8,2793.9 3863.4,2878.3 3850.4,2937.4 3756.3,3002.3 3746.3,3042.1 3728.3,3134.2 3694.9,3232.4 3661.4,3302.4 3597.5,3407.3" fill="#ff5100" fill-opacity="0.15" stroke="#ff5100" stroke-width="3" stroke-dasharray="8,12" stroke-opacity="0.5" id="japan_town" data-name="Japantown"/>
    <polygon points="4295.8,3159.7 4295.3,3160.0 4087.6,3151.5 3977.6,3086.9 3882.8,3022.7 3848.3,2935.4 3863.4,2878.3 3825.8,2793.9 3872.1,2780.2 3862.2,2736.9 3886.8,2731.3 3847.6,2616.0 3830.1,2487.5 3755.9,2497.8 3757.3,2448.4 3774.5,2387.8 3792.6,2357.0 3835.4,2303.9 3825.2,2184.8 3769.0,1974.9 3726.6,1942.0 3720.2,1886.9 3889.3,1725.4 3944.2,1854.6 4058.9,2000.8 4182.1,2130.2 4185.5,2172.7 4194.1,2205.6 4224.0,2229.9 4268.8,2233.3 4288.3,2241.8 4307.9,2268.4 4317.8,2294.8 4327.9,2328.7 4354.0,2352.6 4379.8,2360.3 4401.1,2379.9 4430.1,2424.1 4495.2,2483.8 4581.2,2502.9 4692.9,2522.3 4668.0,2957.4 4293.6,3157.1" fill="#ff5100" fill-opacity="0.15" stroke="#ff5100" stroke-width="3" stroke-dasharray="8,12" stroke-opacity="0.5" id="north_oak" data-name="North Oak"/>
    <polygon points="4591.8,3661.3 4490.5,3692.2 4210.2,3737.9 4155.7,3736.7 4105.0,3716.9 3799.0,3517.8 3785.1,3536.1 3597.5,3407.3 3661.4,3302.4 3694.9,3232.4 3728.3,3134.2 3746.3,3042.1 3756.3,3002.3 3848.3,2935.4 3882.8,3022.7 3977.6,3086.9 4087.6,3151.5 4295.3,3160.0 4559.1,3460.7" fill="#ff5100" fill-opacity="0.15" stroke="#ff5100" stroke-width="3" stroke-dasharray="8,12" stroke-opacity="0.5" id="charter_hill" data-name="Charter Hill"/>
    <polygon points="4581.2,2502.9 4495.2,2483.8 4430.1,2424.1 4401.1,2379.9 4379.8,2360.3 4354.0,2352.6 4327.9,2328.7 4317.8,2294.8 4307.9,2268.4 4288.3,2241.8 4268.8,2233.3 4224.0,2229.9 4194.1,2205.6 4185.5,2172.7 4182.3,2131.9 4208.2,2108.7 4220.1,2093.6 4235.9,2086.9 4289.3,2075.1 4302.1,2069.0 4306.0,2052.6 4293.3,2008.6 4291.4,1976.6 4302.6,1961.9 4316.1,1953.9 4367.5,1951.8 4459.2,1953.4 4503.6,1952.4 4528.2,1966.7 4657.5,1971.4 4671.6,1975.3 4681.2,1985.0 4682.5,2017.7 4687.1,2030.8 4709.8,2051.8 4732.8,2068.2 4773.4,2081.7 4811.4,2094.5 4868.2,2138.6 4876.0,2144.9 4882.6,2160.6 4810.4,2261.5 5010.7,2460.4 4810.2,2261.2 4783.5,2321.3 4757.5,2364.6 4758.3,2432.2 4756.6,2450.2 4733.0,2498.3 4670.9,2518.5" fill="#ff5100" fill-opacity="0.08" stroke="#ff5100" stroke-width="2" stroke-dasharray="4,8" stroke-opacity="0.4" id="north_oaks_casino" data-name="North Oaks Casino"/>
    <polygon points="4293.6,3157.1 4559.1,3460.7 4591.8,3661.3 4490.5,3692.2 4210.2,3737.9 4155.7,3736.7 4105.0,3716.9 3799.0,3517.8 3785.1,3536.1 3597.5,3407.3 3362.1,3266.1 3327.4,3091.2 3144.3,2992.2 3090.9,2788.6 3154.4,2706.2 3220.0,2518.6 3226.8,2382.7 3295.0,2287.1 3367.8,2236.5 3576.6,2148.8 3696.8,2048.1 3720.5,1990.4 3726.6,1942.0 3720.2,1886.9 3889.3,1725.4 3944.2,1854.6 4058.9,2000.8 4182.1,2130.2 4185.5,2172.7 4194.1,2205.6 4224.0,2229.9 4268.8,2233.3 4288.3,2241.8 4307.9,2268.4 4317.8,2294.8 4327.9,2328.7 4354.0,2352.6 4379.8,2360.3 4401.1,2379.9 4430.1,2424.1 4495.2,2483.8 4581.2,2502.9 4692.9,2522.3 4668.0,2957.4" fill="none" stroke="#ff5100" stroke-width="3" stroke-opacity="0.8"/>
  </g>
  <g id="heywood" data-name="Heywood">
    <polygon points="2482.5,3399.5 2479.2,3796.2 2468.8,4266.5 2309.0,4265.7 2248.8,4118.2 2085.1,4030.9 1993.5,3860.6 1936.0,3387.1" fill="#1ded83" fill-opacity="0.15" stroke="#1ded83" stroke-width="3" stroke-dasharray="8,12" stroke-opacity="0.5" id="wellspring" data-name="Wellsprings"/>
    <polygon points="2950.4,4304.6 2468.8,4266.5 2479.2,3796.2 2482.5,3399.5 2664.7,3403.6 2673.6,3454.8 2701.4,3499.6 2738.3,3545.7 2782.4,3578.1 2854.4,3596.5 2920.5,3596.0 2984.7,3581.9 3017.8,3563.9 3064.4,3516.9 3108.4,3835.4 3166.5,4022.4" fill="#1ded83" fill-opacity="0.15" stroke="#1ded83" stroke-width="3" stroke-dasharray="8,12" stroke-opacity="0.5" id="glen" data-name="The Glen"/>
    <polygon points="3166.5,4022.4 3108.4,3835.4 3064.4,3516.9 3099.6,3462.9 3112.4,3409.0 3118.6,3364.5 3144.4,3340.0 3199.2,3300.7 3129.0,3254.0 3087.5,3212.5 3214.3,3029.3 3327.4,3091.2 3362.1,3266.1 3625.6,3422.8 3235.6,3926.9" fill="#1ded83" fill-opacity="0.15" stroke="#1ded83" stroke-width="3" stroke-dasharray="8,12" stroke-opacity="0.5" id="vista_del_rey" data-name="Vista Del Rey"/>
    <polygon points="2950.4,4304.6 3166.5,4022.4 3235.6,3926.9 3625.6,3422.8 3362.1,3266.1 3327.4,3091.2 3214.3,3029.3 3087.5,3212.5 3129.0,3254.0 3199.2,3300.7 3144.4,3340.0 3118.6,3364.5 3112.4,3409.0 3099.6,3462.9 3064.4,3516.9 3017.8,3563.9 2984.7,3581.9 2920.5,3596.0 2854.4,3596.5 2782.4,3578.1 2738.3,3545.7 2701.4,3499.6 2673.6,3454.8 2664.7,3403.6 2482.5,3399.5 1936.0,3387.1 1993.5,3860.6 2085.1,4030.9 2248.8,4118.2 2309.0,4265.7 2468.8,4266.5" fill="none" stroke="#1ded83" stroke-width="3" stroke-opacity="0.8"/>
  </g>
  <g id="santo_domingo" data-name="Santo Domingo">
    <polygon points="4155.7,3736.7 4210.2,3737.9 4212.8,3737.5 3720.2,4409.6 3695.4,4392.6 3627.4,4483.3 3584.2,4532.0 3468.1,4596.0 3660.1,4723.1 3541.5,4854.5 3331.3,4725.9 3182.9,4584.0 3144.7,4556.5 3082.6,4460.9 3055.2,4424.4 3006.3,4382.5 2963.7,4368.7 2950.4,4304.6 3570.8,3495.3 3625.6,3422.8 3785.1,3536.1 3799.0,3517.8 4105.0,3716.9" fill="#5ef6ff" fill-opacity="0.15" stroke="#5ef6ff" stroke-width="3" stroke-dasharray="8,12" stroke-opacity="0.5" id="arroyo" data-name="Arroyo"/>
    <polygon points="3642.1,4915.5 3541.5,4854.5 3660.1,4723.1 3468.1,4596.0 3584.2,4532.0 3627.4,4483.3 3695.4,4392.6 3720.2,4409.6 4212.8,3737.5 4490.5,3692.2 4591.8,3661.3 4704.0,3781.6 4735.0,3864.1 4598.9,4335.8 4585.4,4561.1 4574.8,4652.0 4553.1,4702.3 4496.7,4771.3 4463.9,4780.5 4443.1,4838.6 4400.2,4884.1 4330.4,4939.6 4267.5,5069.4 4212.0,5115.3 4031.5,5065.2 3995.5,5018.9 3938.7,4900.1 3861.3,4906.8" fill="#5ef6ff" fill-opacity="0.15" stroke="#5ef6ff" stroke-width="3" stroke-dasharray="8,12" stroke-opacity="0.5" id="rancho_coronado" data-name="Rancho Coronado"/>
    <polygon points="4155.7,3736.7 4105.0,3716.9 3799.0,3517.8 3785.1,3536.1 3625.6,3422.8 2950.4,4304.6 2963.7,4368.7 3006.3,4382.5 3055.2,4424.4 3082.6,4460.9 3144.7,4556.5 3182.9,4584.0 3331.3,4725.9 3518.0,4848.4 3642.1,4915.5 3861.3,4906.8 3938.7,4900.1 3995.5,5018.9 4031.5,5065.2 4212.0,5115.3 4267.5,5069.4 4330.4,4939.6 4400.2,4884.1 4443.1,4838.6 4463.9,4780.5 4496.7,4771.3 4553.1,4702.3 4574.8,4652.0 4585.4,4561.1 4598.9,4335.8 4735.0,3864.1 4704.0,3781.6 4591.8,3661.3 4490.5,3692.2 4210.2,3737.9" fill="none" stroke="#5ef6ff" stroke-width="3" stroke-opacity="0.8"/>
  </g>
  <g id="pacifica" data-name="Pacifica">
    <polygon points="2652.9,4765.8 2611.8,4724.7 2589.5,4746.5 2571.9,4763.8 2577.7,4768.0 2525.7,4815.7 2522.5,4816.1 2518.6,4813.1 2511.6,4820.6 2496.4,4807.1 2482.9,4807.6 2470.3,4819.4 2468.6,4832.5 2443.6,4807.6 2428.1,4821.5 2424.9,4824.4 2424.4,4827.5 2427.1,4830.3 2418.3,4839.3 2438.6,4856.7 2446.8,4864.3 2442.2,4868.3 2437.1,4863.7 2438.5,4862.4 2435.3,4859.7 2424.4,4869.7 2437.5,4882.2 2434.1,4885.5 2415.7,4867.8 2415.5,4867.7 2403.6,4856.5 2388.2,4870.8 2389.2,4871.8 2377.1,4883.5 2381.4,4887.7 2360.7,4906.9 2319.0,4947.0 2313.4,4953.8 2297.1,4969.0 2293.1,4973.9 2287.6,4978.8 2219.9,4893.5 1992.4,4605.4 2180.9,4322.6 2476.6,4282.2 2950.1,4303.8 2963.5,4369.2 3003.6,4382.2 3034.9,4407.3 3080.3,4458.3 3140.0,4550.9 3124.5,4563.2 3074.3,4528.2 3064.8,4514.3 3042.8,4502.8 3016.3,4499.6 3008.0,4501.9 2988.2,4515.5 2938.4,4517.0 2875.9,4540.7 2862.9,4516.3 2841.7,4566.5 2844.4,4575.0 2823.4,4616.5 2813.1,4611.9 2804.1,4630.9 2799.2,4629.1 2773.1,4672.7 2684.2,4755.6 2674.1,4745.6" fill="#ff6158" fill-opacity="0.15" stroke="#ff6158" stroke-width="3" stroke-dasharray="8,12" stroke-opacity="0.5" id="coastview" data-name="Coastview"/>
    <polygon points="2180.9,4322.6 2186.3,4321.8 1998.8,4608.8 2097.7,4747.2 2154.9,4813.4 2288.1,4978.4 2287.6,4978.8 2289.7,4980.4 2290.5,4981.4 2249.5,5007.7 2171.4,5056.8 2171.8,5057.5 2171.1,5057.9 2184.4,5079.7 2075.1,5127.6 1839.6,5168.3 1780.6,5178.3 1680.9,5091.3 1679.1,5089.8 1679.1,5089.8 1678.5,5089.2 1675.0,5102.4 1674.8,5102.9 1625.6,5146.6 1346.2,4759.9 1436.0,4671.1 1666.6,4448.9 1908.6,4168.3 1924.8,4149.9 1955.1,4169.3" fill="#ff6158" fill-opacity="0.15" stroke="#ff6158" stroke-width="3" stroke-dasharray="8,12" stroke-opacity="0.5" id="west_wind_estate" data-name="West Wind Estate"/>
    <polygon points="2652.9,4765.8 2674.1,4745.6 2684.2,4755.6 2773.1,4672.7 2799.2,4629.1 2804.1,4630.9 2813.1,4611.9 2823.4,4616.5 2844.4,4575.0 2841.7,4566.5 2862.9,4516.3 2875.9,4540.7 2938.4,4517.0 2988.2,4515.5 3008.0,4501.9 3016.3,4499.6 3042.8,4502.8 3064.8,4514.3 3074.3,4528.2 3124.5,4563.2 3140.0,4550.9 3080.3,4458.3 3034.9,4407.3 3003.6,4382.2 2963.5,4369.2 2950.1,4303.8 2476.6,4282.2 2180.9,4322.6 1925.2,4149.0 1666.6,4448.9 1344.8,4759.0 1625.2,5147.0 1674.9,5102.8 1678.5,5089.2 1780.7,5178.4 2075.1,5127.6 2184.9,5079.4 2171.4,5056.8 2291.1,4981.5 2287.6,4978.8 2293.1,4973.9 2297.1,4969.0 2313.4,4953.8 2319.0,4947.0 2360.7,4906.9 2381.4,4887.7 2377.1,4883.5 2389.2,4871.8 2388.2,4870.8 2403.6,4856.5 2415.5,4867.7 2415.7,4867.8 2434.1,4885.5 2437.5,4882.2 2424.4,4869.7 2435.3,4859.7 2438.5,4862.4 2437.1,4863.7 2442.2,4868.3 2446.8,4864.3 2438.6,4856.7 2418.3,4839.3 2427.1,4830.3 2424.4,4827.5 2424.9,4824.4 2428.1,4821.5 2443.6,4807.6 2468.6,4832.5 2470.3,4819.4 2482.9,4807.6 2496.4,4807.1 2511.6,4820.6 2518.6,4813.1 2522.5,4816.1 2525.7,4815.7 2577.7,4768.0 2571.9,4763.8 2589.5,4746.5 2611.8,4724.7" fill="none" stroke="#ff6158" stroke-width="3" stroke-opacity="0.8"/>
  </g>
  <g id="dogtown" data-name="Dogtown">
    <polygon points="2074.4,5128.6 1969.8,5227.6 2004.3,5258.0 2021.6,5273.4 2044.1,5289.1 2086.5,5317.1 2150.1,5385.1 2279.9,5531.8 2508.9,5406.9 2735.9,5303.7 2817.4,5259.2 2963.8,5172.3 3056.4,5058.6 3318.5,4734.3 3187.1,4592.4 3137.0,4549.9 3075.1,4529.9 3062.9,4515.4 3045.0,4502.3 3014.5,4500.5 2986.0,4517.6 2944.9,4516.0 2878.7,4544.3 2864.6,4518.1 2840.8,4565.3 2842.8,4573.8 2824.1,4616.6 2812.9,4612.3 2809.3,4620.4 2804.6,4630.9 2797.8,4628.5 2791.4,4642.8 2787.6,4651.2 2776.3,4674.4 2706.6,4734.9 2669.3,4752.1 2659.7,4760.5 2653.4,4755.7 2646.6,4762.3 2609.7,4728.5 2572.7,4763.1 2578.4,4769.4 2524.7,4816.2 2518.9,4816.0 2512.8,4822.4 2496.4,4807.3 2484.1,4806.8 2468.8,4820.8 2468.8,4832.5 2443.7,4808.2 2425.2,4824.2 2425.0,4828.3 2427.4,4830.2 2418.4,4838.7 2446.3,4864.0 2441.6,4868.7 2433.6,4861.1 2424.4,4869.7 2437.5,4882.2 2433.9,4885.6 2403.5,4856.6 2388.3,4870.8 2389.3,4871.8 2377.0,4883.6 2382.9,4889.1 2349.4,4919.3 2329.5,4938.5 2289.2,4978.3 2294.4,4983.9 2248.4,5026.5 2232.3,5039.4 2191.9,5044.4 2171.8,5057.9 2186.0,5080.2" fill="#00a32c" fill-opacity="0.15" stroke="none"/>
    <polygon points="2074.4,5128.6 1969.8,5227.6 2004.3,5258.0 2021.6,5273.4 2044.1,5289.1 2086.5,5317.1 2150.1,5385.1 2279.9,5531.8 2508.9,5406.9 2735.9,5303.7 2817.4,5259.2 2963.8,5172.3 3056.4,5058.6 3318.5,4734.3 3187.1,4592.4 3137.0,4549.9 3075.1,4529.9 3062.9,4515.4 3045.0,4502.3 3014.5,4500.5 2986.0,4517.6 2944.9,4516.0 2878.7,4544.3 2864.6,4518.1 2840.8,4565.3 2842.8,4573.8 2824.1,4616.6 2812.9,4612.3 2809.3,4620.4 2804.6,4630.9 2797.8,4628.5 2791.4,4642.8 2787.6,4651.2 2776.3,4674.4 2706.6,4734.9 2669.3,4752.1 2659.7,4760.5 2653.4,4755.7 2646.6,4762.3 2609.7,4728.5 2572.7,4763.1 2578.4,4769.4 2524.7,4816.2 2518.9,4816.0 2512.8,4822.4 2496.4,4807.3 2484.1,4806.8 2468.8,4820.8 2468.8,4832.5 2443.7,4808.2 2425.2,4824.2 2425.0,4828.3 2427.4,4830.2 2418.4,4838.7 2446.3,4864.0 2441.6,4868.7 2433.6,4861.1 2424.4,4869.7 2437.5,4882.2 2433.9,4885.6 2403.5,4856.6 2388.3,4870.8 2389.3,4871.8 2377.0,4883.6 2382.9,4889.1 2349.4,4919.3 2329.5,4938.5 2289.2,4978.3 2294.4,4983.9 2248.4,5026.5 2232.3,5039.4 2191.9,5044.4 2171.8,5057.9 2186.0,5080.2" fill="none" stroke="#00a32c" stroke-width="3" stroke-opacity="0.8"/>
  </g>
  <g id="ncx_morro_rock" data-name="NCX Spaceport / Morro Rock">
    <polygon points="1569.3,2493.3 1817.6,2626.5 1817.6,2892.9 1604.8,3292.5 1072.9,3758.7 257.2,3758.7 79.9,3625.5 79.9,2626.5 257.2,2493.3" fill="#349197" fill-opacity="0.15" stroke="none"/>
    <polygon points="1569.3,2493.3 1817.6,2626.5 1817.6,2892.9 1604.8,3292.5 1072.9,3758.7 257.2,3758.7 79.9,3625.5 79.9,2626.5 257.2,2493.3" fill="none" stroke="#349197" stroke-width="3" stroke-opacity="0.8"/>
  </g>
  <g id="badlands" data-name="Badlands">
    <polygon points="5045.1,4964.6 5021.4,4849.3 5308.7,4817.1 5287.4,5423.1 5068.3,6276.4 4829.1,6559.5 4372.4,6221.0 4217.7,6003.0 4276.1,5687.8 4368.5,5171.3 4412.2,5052.3 4547.3,5109.5 4549.0,5234.7 4754.0,5200.6" fill="#c8a882" fill-opacity="0.10" stroke="#c8a882" stroke-width="2" stroke-dasharray="8,12" stroke-opacity="0.6" id="laguna_bend" data-name="Laguna Bend"/>
    <polygon points="5010.7,2460.4 5114.6,2612.2 5289.2,3037.6 5327.7,3292.0 5225.5,4020.2 5039.4,4774.1 5047.6,4846.4 5021.4,4849.3 5045.1,4964.6 4754.0,5200.6 4549.0,5234.7 4547.3,5109.5 4412.2,5052.3 4407.5,5065.3 4396.2,5061.2 4389.3,4892.8 4400.2,4884.1 4443.1,4838.6 4463.9,4780.5 4496.7,4771.3 4553.1,4702.3 4574.8,4652.0 4585.4,4561.1 4588.7,4505.8 4588.7,4505.8 4598.9,4335.8 4735.0,3864.1 4704.0,3781.6 4591.8,3661.3 4559.1,3460.7 4293.6,3157.1 4668.0,2957.4 4692.9,2522.3 4670.9,2518.5 4733.0,2498.3 4756.6,2450.2 4758.3,2432.2 4757.5,2364.6 4783.5,2321.3 4810.2,2261.2" fill="#c8a882" fill-opacity="0.10" stroke="#c8a882" stroke-width="2" stroke-dasharray="8,12" stroke-opacity="0.6" id="red_peaks" data-name="Red Peaks"/>
    <polygon points="4732.8,2068.2 4709.8,2051.8 4687.1,2030.8 4682.5,2017.7 4681.2,1985.0 4671.6,1975.3 4657.5,1971.4 4528.2,1966.7 4503.6,1952.4 4459.2,1953.4 4367.5,1951.8 4316.1,1953.9 4302.6,1961.9 4291.4,1976.6 4293.3,2008.6 4306.0,2052.6 4302.1,2069.0 4289.3,2075.1 4235.9,2086.9 4220.1,2093.6 4208.2,2108.7 4182.3,2131.9 4182.1,2130.2 4058.9,2000.8 3944.2,1854.6 3889.3,1725.4 3641.7,1189.2 3614.3,999.5 3595.8,987.9 3851.9,648.9 3849.5,644.3 5771.3,473.8 6636.3,1056.0 6890.5,2730.6 7537.2,2823.1 7528.5,2958.2 7502.9,2940.6 7485.4,3397.6 7358.2,3954.1 7234.6,4555.3 6909.2,4738.5 5286.1,4815.4 5285.7,4819.7 5029.7,4848.4 5047.6,4846.4 5040.4,4783.2 5047.0,4743.2 5040.4,4783.2 5039.4,4774.1 5225.5,4020.2 5327.7,3292.0 5289.2,3037.6 5114.6,2612.2 5010.7,2460.4 4810.4,2261.5 4882.6,2160.6 4876.0,2144.9 4868.2,2138.6 4811.4,2094.5 4773.4,2081.7" fill="#c8a882" fill-opacity="0.10" stroke="#c8a882" stroke-width="2" stroke-dasharray="8,12" stroke-opacity="0.6" id="rocky_ridge" data-name="Rocky Ridge"/>
    <polygon points="5295.0,5207.2 5308.7,4817.1 5285.7,4819.7 5286.1,4815.4 6909.2,4738.5 7234.6,4555.3 7230.4,4575.5 7847.7,5409.1 7842.8,5340.3 7910.4,5429.9" fill="#c8a882" fill-opacity="0.10" stroke="#c8a882" stroke-width="2" stroke-dasharray="8,12" stroke-opacity="0.6" id="sierra_sonora" data-name="Sierra Sonora"/>
    <polygon points="7358.2,3954.1 7485.4,3397.6 7502.9,2940.6 8168.2,3397.9 7764.2,4228.9 7847.7,5409.1 7230.4,4575.5" fill="#c8a882" fill-opacity="0.10" stroke="#c8a882" stroke-width="2" stroke-dasharray="8,12" stroke-opacity="0.6" id="vasquez_pass" data-name="Vasquez Pass"/>
    <polygon points="2072.4,6864.2 3063.1,5663.7 3209.6,5387.8 3557.3,4869.6 3642.1,4915.5 3861.3,4906.8 3938.7,4900.1 3995.5,5018.9 4031.5,5065.2 4212.0,5115.3 4267.5,5069.4 4330.4,4939.6 4393.0,4889.9 4393.0,4889.9 4389.3,4892.8 4396.2,5061.2 4407.5,5065.3 4409.9,5058.7 4409.9,5058.8 4368.5,5171.3 4276.1,5687.8 4217.7,6003.0 4222.7,6010.1 4002.4,6959.2 3961.4,6974.3 3963.8,6960.6 3481.4,7026.7" fill="#c8a882" fill-opacity="0.10" stroke="#c8a882" stroke-width="2" stroke-dasharray="8,12" stroke-opacity="0.6" id="jackson_plains" data-name="Jackson Plains"/>
    <polygon points="2657.9,7476.4 2546.8,7470.7 2467.9,7460.7 2399.5,7422.4 2248.2,7320.7 1931.9,7119.6 2004.1,7022.8 1959.7,6994.0 2069.0,6863.8 3481.4,7026.7 3963.8,6960.6 3892.3,7370.1 3574.5,7403.8 3386.9,7437.1 3178.8,7462.8 3007.5,7456.7 2868.3,7467.4 2753.5,7474.1" fill="#c8a882" fill-opacity="0.10" stroke="#c8a882" stroke-width="2" stroke-dasharray="8,12" stroke-opacity="0.6" id="rattlesnake_creek" data-name="Rattlesnake Creek"/>
    <polygon points="1907.1,6964.2 1845.6,7042.6 57.4,5882.9 1541.1,5030.6 1625.2,5147.0 1669.2,5107.9 1669.2,5107.9 1674.9,5102.8 1678.5,5089.2 1780.7,5178.4 1795.5,5175.9 1918.7,5287.2 1961.1,5247.2 1963.7,5245.0 1966.5,5243.0 1969.5,5241.3 1972.7,5239.9 1976.0,5238.8 1979.4,5238.0 1981.3,5237.8 2004.3,5258.0 2021.6,5273.4 2044.1,5289.1 2086.5,5317.1 2126.4,5359.8 2126.4,5359.8 2150.1,5385.1 2279.9,5531.8 2508.9,5406.9 2735.9,5303.7 2817.4,5259.2 2963.8,5172.3 3056.4,5058.6 3318.5,4734.3 3213.2,4620.5 3213.2,4620.5 3215.4,4618.0 3216.9,4616.5 3331.3,4725.9 3518.0,4848.4 3566.0,4874.3 3557.3,4869.6 3209.6,5387.8 3063.1,5663.7 2072.4,6864.2 2072.4,6864.2 2072.4,6864.2 2069.0,6863.8 1959.7,6994.0 1963.2,6996.4 1960.9,6999.2 1938.6,6984.7 1917.3,6969.6 1916.6,6970.5" fill="#c8a882" fill-opacity="0.10" stroke="#c8a882" stroke-width="2" stroke-dasharray="8,12" stroke-opacity="0.6" id="biotechnica_flats" data-name="Biotechnica Flats"/>
    <polygon points="1739.1,-25.0 3362.3,74.1 3664.7,295.5 3851.9,648.9 3595.8,987.9 3456.3,900.4 3307.9,854.8 3122.9,829.3 2825.9,939.1 2737.0,992.1 2549.2,1121.1 2413.8,1197.3 2151.4,1210.6 2099.0,1243.7 1623.8,1113.9 1673.2,924.3 1575.7,697.4 1475.1,531.2 1514.6,310.1 1547.4,136.0" fill="#c8a882" fill-opacity="0.10" stroke="#c8a882" stroke-width="2" stroke-dasharray="8,12" stroke-opacity="0.6" id="north_sunrise_oil_field" data-name="North Sunrise Oil Field"/>
    <polygon points="1917.3,6969.6 1999.7,7028.2 1860.2,7198.6 1774.8,7137.1" fill="#c8a882" fill-opacity="0.10" stroke="#c8a882" stroke-width="2" stroke-dasharray="8,12" stroke-opacity="0.6" id="socal_border_crossing" data-name="SoCal Border Crossing"/>
  </g>
  <g id="labels">
    <text x="2890" y="3182" fill="#ffd741" font-size="28" font-family="sans-serif" text-anchor="middle" dominant-baseline="central" opacity="0.9">Corporate Plaza</text>
    <text x="2270" y="3100" fill="#ffd741" font-size="28" font-family="sans-serif" text-anchor="middle" dominant-baseline="central" opacity="0.9">Downtown</text>
    <text x="2560" y="3138" fill="#ffd741" font-size="42" font-weight="bold" font-family="sans-serif" text-anchor="middle" dominant-baseline="central" opacity="0.7">City Center</text>
    <text x="2087" y="1838" fill="#ff3e34" font-size="28" font-family="sans-serif" text-anchor="middle" dominant-baseline="central" opacity="0.9">Arasaka Waterfront</text>
    <text x="3099" y="1482" fill="#ff3e34" font-size="28" font-family="sans-serif" text-anchor="middle" dominant-baseline="central" opacity="0.9">Northside Industrial District</text>
    <text x="3151" y="2228" fill="#ff3e34" font-size="28" font-family="sans-serif" text-anchor="middle" dominant-baseline="central" opacity="0.9">Kabuki</text>
    <text x="2673" y="2453" fill="#ff3e34" font-size="28" font-family="sans-serif" text-anchor="middle" dominant-baseline="central" opacity="0.9">Little China</text>
    <text x="2766" y="1802" fill="#ff3e34" font-size="42" font-weight="bold" font-family="sans-serif" text-anchor="middle" dominant-baseline="central" opacity="0.7">Watson</text>
    <text x="3522" y="2705" fill="#ff5100" font-size="28" font-family="sans-serif" text-anchor="middle" dominant-baseline="central" opacity="0.9">Japantown</text>
    <text x="4169" y="2582" fill="#ff5100" font-size="28" font-family="sans-serif" text-anchor="middle" dominant-baseline="central" opacity="0.9">North Oak</text>
    <text x="4096" y="3398" fill="#ff5100" font-size="28" font-family="sans-serif" text-anchor="middle" dominant-baseline="central" opacity="0.9">Charter Hill</text>
    <text x="4539" y="2212" fill="#ff5100" font-size="22" font-family="sans-serif" font-style="italic" text-anchor="middle" dominant-baseline="central" opacity="0.6">North Oaks Casino ✦</text>
    <text x="3920" y="2817" fill="#ff5100" font-size="42" font-weight="bold" font-family="sans-serif" text-anchor="middle" dominant-baseline="central" opacity="0.7">Westbrook</text>
    <text x="2247" y="3762" fill="#1ded83" font-size="28" font-family="sans-serif" text-anchor="middle" dominant-baseline="central" opacity="0.9">Wellsprings</text>
    <text x="2773" y="3893" fill="#1ded83" font-size="28" font-family="sans-serif" text-anchor="middle" dominant-baseline="central" opacity="0.9">The Glen</text>
    <text x="3281" y="3502" fill="#1ded83" font-size="28" font-family="sans-serif" text-anchor="middle" dominant-baseline="central" opacity="0.9">Vista Del Rey</text>
    <text x="2723" y="3755" fill="#1ded83" font-size="42" font-weight="bold" font-family="sans-serif" text-anchor="middle" dominant-baseline="central" opacity="0.7">Heywood</text>
    <text x="3548" y="4100" fill="#5ef6ff" font-size="28" font-family="sans-serif" text-anchor="middle" dominant-baseline="central" opacity="0.9">Arroyo</text>
    <text x="4185" y="4401" fill="#5ef6ff" font-size="28" font-family="sans-serif" text-anchor="middle" dominant-baseline="central" opacity="0.9">Rancho Coronado</text>
    <text x="3899" y="4266" fill="#5ef6ff" font-size="42" font-weight="bold" font-family="sans-serif" text-anchor="middle" dominant-baseline="central" opacity="0.7">Santo Domingo</text>
    <text x="2483" y="4551" fill="#ff6158" font-size="28" font-family="sans-serif" text-anchor="middle" dominant-baseline="central" opacity="0.9">Coastview</text>
    <text x="1834" y="4737" fill="#ff6158" font-size="28" font-family="sans-serif" text-anchor="middle" dominant-baseline="central" opacity="0.9">West Wind Estate</text>
    <text x="2124" y="4654" fill="#ff6158" font-size="42" font-weight="bold" font-family="sans-serif" text-anchor="middle" dominant-baseline="central" opacity="0.7">Pacifica</text>
    <text x="2669" y="5014" fill="#00a32c" font-size="42" font-weight="bold" font-family="sans-serif" text-anchor="middle" dominant-baseline="central" opacity="0.7">Dogtown</text>
    <text x="863" y="3078" fill="#349197" font-size="42" font-weight="bold" font-family="sans-serif" text-anchor="middle" dominant-baseline="central" opacity="0.7">NCX Spaceport / Morro Rock</text>
    <text x="4788" y="5684" fill="#c8a882" font-size="28" font-family="sans-serif" text-anchor="middle" dominant-baseline="central" opacity="0.9">Laguna Bend</text>
    <text x="4873" y="3757" fill="#c8a882" font-size="28" font-family="sans-serif" text-anchor="middle" dominant-baseline="central" opacity="0.9">Red Peaks</text>
    <text x="5778" y="2545" fill="#c8a882" font-size="28" font-family="sans-serif" text-anchor="middle" dominant-baseline="central" opacity="0.9">Rocky Ridge</text>
    <text x="6578" y="5043" fill="#c8a882" font-size="28" font-family="sans-serif" text-anchor="middle" dominant-baseline="central" opacity="0.9">Sierra Sonora</text>
    <text x="7650" y="4049" fill="#c8a882" font-size="28" font-family="sans-serif" text-anchor="middle" dominant-baseline="central" opacity="0.9">Vasquez Pass</text>
    <text x="3452" y="6091" fill="#c8a882" font-size="28" font-family="sans-serif" text-anchor="middle" dominant-baseline="central" opacity="0.9">Jackson Plains</text>
    <text x="2938" y="7184" fill="#c8a882" font-size="28" font-family="sans-serif" text-anchor="middle" dominant-baseline="central" opacity="0.9">Rattlesnake Creek</text>
    <text x="1773" y="5897" fill="#c8a882" font-size="28" font-family="sans-serif" text-anchor="middle" dominant-baseline="central" opacity="0.9">Biotechnica Flats</text>
    <text x="2544" y="549" fill="#c8a882" font-size="28" font-family="sans-serif" text-anchor="middle" dominant-baseline="central" opacity="0.9">North Sunrise Oil Field</text>
    <text x="1888" y="7084" fill="#c8a882" font-size="28" font-family="sans-serif" text-anchor="middle" dominant-baseline="central" opacity="0.9">SoCal Border Crossing</text>
    <text x="6261" y="3861" fill="#c8a882" font-size="42" font-weight="bold" font-family="sans-serif" text-anchor="middle" dominant-baseline="central" opacity="0.7">Badlands</text>
  </g>
</svg>
